<?xml version="1.0" encoding="UTF-8"?>
<svg id="Layer_3" xmlns="http://www.w3.org/2000/svg" version="1.1" viewBox="0 0 600 600">
  <!-- Generator: Adobe Illustrator 30.1.0, SVG Export Plug-In . SVG Version: 2.1.1 Build 136)  -->
  <defs>
    <style>
      .st0 {
        fill: #ffab4d;
      }

      .st1 {
        fill: #ff7d7d;
      }

      .st2 {
        fill: #ffd085;
      }

      .st3 {
        fill: #ff9417;
      }

      .st4 {
        fill: #feedc8;
      }

      .st5 {
        fill: #ffb7a9;
      }

      .st6 {
        fill: #ff9a83;
      }
    </style>
  </defs>
  <path class="st0" d="M851.9,1110.7c-65.9-229.9-211.4-374.4-211.4-374.4l-1015.2-56.7c34,38.9-186,206.7-191.6,431.1,356.4,253.8,987.8,246.6,1418.2,0Z"/>
  <path class="st3" d="M-381.5,733.4c7.2,50.2,88.4,180.8,221.5,248,0,0-181.3,5.1-286.9-150.8,0,0,61.6-123.8,65.4-97.2Z"/>
  <path class="st3" d="M-473.4,905.4c18,55.7,150.9,193.7,312.1,229.2,0,0-233.2,38.3-365.1-111.4,0,0,43.9-146,53-117.8Z"/>
  <path class="st3" d="M681.2,825c-37.8,54.4-98.5,116.5-177.4,156.4,0,0,130.4,3.6,234.4-90.3-16-24.9-34.6-48.2-57.1-66Z"/>
  <path class="st3" d="M778.5,962.9c-.9-1.7-1.8-3.5-2.7-5.2-57,59.1-156,145.1-261.1,168.3,0,0,154.7,25.4,306.3-75.5-12.7-30.4-28.2-59.8-42.5-87.5Z"/>
  <path class="st4" d="M655.8,752.8c-18.1,11.3-35.8,23.3-52.9,36.1,41.8,47.9,140.5,174.5,191.7,352.5,19.4-9.8,38.5-20,57.2-30.8-52.9-184.5-157-313.9-196-357.9Z"/>
  <path d="M132.4,1300.5c-1.2,0-2.4,0-3.7,0-306-.5-570.5-65.6-707.4-174.1-5.1-4.1-8-10.4-7.6-17,8.3-131.6,82.6-242.2,136.8-323,32.9-49,61.3-91.3,60.7-116.5-.2-11.1,8.5-20.2,19.6-20.5,11-.3,20.2,8.5,20.5,19.6.8,37.9-29.3,82.8-67.5,139.7-52.9,78.9-118.5,176.6-129.2,292.7,65.1,48.7,161.6,88.9,279.8,116.5,117.7,27.5,254.1,42.2,394.5,42.4,1.2,0,2.4,0,3.6,0,289.4,0,547.7-58.8,696.1-158-65.4-213.9-200.8-350.6-202.2-351.9-7.8-7.8-7.9-20.5,0-28.3,7.8-7.8,20.5-7.9,28.3,0,6.1,6,149.9,150.8,216.5,383.1,2.3,8.2-.7,16.9-7.6,21.8-152.8,108.7-425.9,173.5-731.1,173.5Z"/>
  <path class="st0" d="M248.3-266.3s-177.8-17.8-370.6,76.1c0,0-260.9-129.3-392.7-60.9-123.6,64.2,55.8,459,55.8,459,0,0-81.8,425.1,240.9,621.3s843.4,60.6,989-251.1c144.5-309.4-30.4-568-78.6-628.9,0,0,22.8-192.7-45.6-334.7-68.5-142-126.8-104-218.1-43.1-91.3,60.9-180,162.3-180,162.3Z"/>
  <path class="st2" d="M214.4,345.8c-59.6,5.1-186.7,56.5-200.2,173.2-15.2,131.1,102.8,232.9,281.1,202.4,185.5-31.7,277.7-140.3,256.1-278.9-21.6-138.2-177.1-156-246.4-119.6-32.6,17.1-90.5,22.9-90.5,22.9Z"/>
  <path class="st2" d="M-182.8,222.3c58.6-50.7,117.5-62.8,173.7-49.2,31.2,7.5,72.3,26,98.5,73.8,20.7,37.7-6,69.9-29.6,69.3-44.2-1.1-81.5-4.3-119.6,2.7-63.6,11.8-81.1,24.1-121.3,42.1-76.4,34.2-71-78.6-1.7-138.6Z"/>
  <path class="st2" d="M546,27.8c-57.8-15.5-117,6.7-153.1,42.7-20,20-42.4,53.2-39.7,103.2,2.1,39.5,34.4,52.6,59.6,38.3,63.3-35.9,94.7-57.8,188.5-74.6,73-13,24.4-88.4-55.3-109.7Z"/>
  <path class="st3" d="M825.7,351.6s-65.8-94.7-246.8-138.6c0,0,167.4-44,246.8,44v94.7Z"/>
  <path class="st3" d="M803.7,153.8s-55.8-38.9-160.6-42.3c0,0,86.2-52.4,142-20.3l18.6,62.6Z"/>
  <path class="st3" d="M781.7,556.2c1.8-54.1-64.1-152.2-128.3-211.3,0,0,118.5,13.5,157.2,98.1,29.7,64.8-28.9,113.3-28.9,113.3Z"/>
  <path class="st3" d="M-96.2,871.1s-68.8-168.6-12.6-328.5c0,0-112,84.6-89.7,281,0,0,39.4,43.7,102.3,47.5Z"/>
  <path class="st3" d="M-284.5,746.1c-.8-83.8,12.2-236.9,127.2-345.4,0,0-198.8,65.9-217.4,278.9l58.3,82.8c8.6,9.8,32.1,13.5,31.8-16.3Z"/>
  <path class="st3" d="M-438.9,560.4c-2.5-48.2,53.7-128.1,176.7-196.5,0,0-99.8-13.7-193.6,79l16.9,117.5Z"/>
  <path class="st3" d="M-533.6-235s206.3-11.8,356.7,167.4c0,0,8.5-23.7,44-47.3,0,0,6.8,140.3,52.4,229.9,0,0,38.9-81.1,13.5-192.7,0,0,74.4,123.4,126.8,155.5,0,0,11.5-106.6-97.2-202,0,0,60-24.6,158.6,71.8,0,0,17.6-107.7,86.6-143.8,0,0-29.7,120.2,26.1,226.7,0,0,33.8-64.2,16.9-175.8,0,0,57.5,86.2,116.7,133.6,0,0-16.5-117.1-87.5-193.2,0,0,34.2-15.6,76.1,4.6,10.1-52,75.2-159.8,123.4-197.8s104.4-60,104.4-60l-71-18.6s-150.5,84.5-240.1,189.3c0,0-311.1,33.8-419.3,86.2,0,0-253.6-143.7-387.1-33.8Z"/>
  <path class="st1" d="M334.3,736.5c-46.2.9-87.6-27.2-122.1-86.8-55.5-95.7-69.3-102.1-69.6-102.7-3.4-7.6,17.4-33.9,25-37.3,7.6-3.4,7.5-.2,14.1-5.2,84.4-63.2,123.2-88.6,215.9-53.2,7.8,3,2.2-16.3,10.2-18.7,8-2.4,25.1,2.9,27.4,10.8,15.4,52.5,26.5,148.5,15.1,195.2-22.7,93.2-99,97.6-116.1,97.9Z"/>
  <path class="st6" d="M160.2,292.5c10.9-21.2,48.4-32.6,71.1-40.5,19.2-6.4,39.8-11.8,59.8-12,24.6-.3,45.4,7.7,33.4,35-11,21-30.5,38.9-49.9,54.4-6.2,5-14.1,7.4-22,6.9-36.1-2.2-101.1-11.2-92.3-43.9Z"/>
  <path class="st5" d="M561.5-441.3c-10.9,3.2-19,11.2-28,17.8-30.7,23.8-63.6,45.4-83.4,78.5-15.6,26.4-28.6,55.3-37.6,84.5-5.7,16.9-10.1,36.2-13.8,53.6-2.1,10,4.4,19.9,14.4,21.8,3.3.6,9.1,1.9,12.6,2.7,65.4,15.5,122.3,74,173.8,108.7,29.2,19.6,85.4-15.4,87.8-87.2,4.1-124.5-37.3-306.7-125.8-280.5Z"/>
  <path class="st5" d="M-209.8-57.2c-48-68-123.8-122.8-203.7-150.7-22.6-7.4-43.5-9.1-66-5.1-3.5.6-40.5-8.4-64.2,35.5-23.7,44-9.7,68.9,50.1,251,27.3,83.2,73.2,109.4,85.2,98.9,27-23.7,38.9-63.2,51.9-79.4,32.9-40.9,72.3-75,115.5-104.8,6.3-4.3,13-8.9,19.5-13,0,0,6.3-4,6.3-4,10.4-5.5,12.9-19.5,5.6-28.5Z"/>
  <g>
    <path class="st2" d="M-454,465.2c-19.3-124.7,0-228.1.1-229.1l1.7-8.9-3.8-8.3c0-.2-1.4-3.1-3.7-8.4-3.8,21.9-28,179.4,25.1,341.1-8.3-27.5-14.8-56.3-19.4-86.4Z"/>
    <path class="st4" d="M692.1-50.7s22.8-192.7-45.6-334.7c-68.5-142-126.8-104-218.1-43.1-91.3,60.9-180,162.3-180,162.3,0,0-177.8-17.8-370.6,76.1,0,0-260.9-129.3-392.7-60.9-71.6,37.2-41.6,185.2-3.6,303.2-3.6-11.5-7-23.2-10.2-35-45.9-166.8-44.1-257.7,55.7-256.8,147.1,1.3,334.5,104.1,336.1,104.9l12.6,6.2,12.6-6.1c217.3-102.9,364.8-75.3,364.9-75.3l14.6,1.4,9.7-11.1c.9-1,99.4-153.6,186.4-211.6,40-26.7,73.3-60.2,104-34.2,25.2,21.4,84.5,155.1,67,413l-1.4,11.8,7.4,9.3c37.3,47.1,213.9,294.1,72.9,595.9-82.3,176.2-314.2,302.7-492,339.7-.5,3.4-1.1,6.7-1.8,10,235.8-25.2,462.8-147.9,550.8-336.2,144.5-309.4-30.4-568-78.6-628.9Z"/>
  </g>
  <path d="M424.1-232.8c-4,11.3-7.2,22.9-11,34.3l-15.9-7c2.7.8,6.7-8,9.1-7.3,62.3,19.1,111.9,43.3,160.6,88.5,23.4,21.8,49.2,68.4,15.7,42.5-51.4-39.6-108.5-75.1-175.3-96.4-3.5-1.1-9.4-2.9-12.9-3.8-10.3-2.8-16.3-13.6-13.3-23.9,5.2-17.8,11.3-37.6,18.6-54.8,11.6-29.8,27.5-58.8,45.8-85.1,23.3-33,51.4-63,85.3-85.4,9.9-6.2,19.1-13.1,30.6-16.3,33.7-9.4-75.9,41.3-137.1,214.6Z"/>
  <path d="M-476.1-210.8c-3.6-.7-3.8-5.8-.2-6.6,22.8-5.1,44.1-4.4,67.6,2.2,82.9,24.7,153.4,88.6,205.5,155.7,7.9,8.9,6,23.2-4.3,29.4,0,0-6.2,4.4-6.2,4.4-6.4,4.5-13.1,9.6-19.3,14.2-42.6,32.4-79.9,70.9-115.1,111.4-13.9,16-26.7,32.8-38,50.7-14.7,23.4-10.6-86.2,152.2-205,2.4-1.7,4.6-3.3,7.3-5.1l-1.4,23c-54.5-61-118.1-125.3-194.5-158.1-20.8-8.9-40.5-13.7-53.5-16.1Z"/>
  <path d="M-199.9,310.9c12.4-21,30.9-37.8,51.6-50.5,41.2-25.6,92-35.7,140.1-29.3,24.1,3.3,45,8.7,63.2,23.7,21.8,18,9.4,39-8.5,37.4-30.3-2.7-69-4.4-98,0-63.9,9.5-106.5,33-126.8,45-20.3,12-33-8.9-21.6-26.3h0Z"/>
  <path d="M580.1,119.4c0,0-.2.1-.4.1-.2,0-.4,0-.6,0l-1.4.2c-4.7.5-10.3,1.1-14.9,1.8-78.8,11.9-123.7,43.2-156.4,66.5s-22.4,5.8-24.9-6c-2.1-10,1.3-18.4,4.8-26.8,11.6-23.1,30.7-41.4,52.2-55.4,39.3-25,89.7-33.5,134.8-21.2,5.2,1.4,10.6,3.2,15.5,5.6,24.1,11.5,19.5,33.1-8.6,35.1h0Z"/>
  <ellipse cx="227" cy="320.7" rx="15.6" ry="19.6" transform="translate(-133.5 164.3) rotate(-31.3)"/>
  <ellipse cx="293.6" cy="299.5" rx="15.6" ry="19.6" transform="translate(-28.1 30.5) rotate(-5.7)"/>
  <path d="M458.1,458c17.5-3.3,32.3-10,28.6-23.5-1.9-7-8.9-11.4-16.1-10.8-71.5,6.8-111.4-5.6-140-17.5-18.4-7.7-32.3-23.2-38.1-42.2-.3-1.1-.7-2.1-.9-3.1-2.3-8.3.5-17.1,7.2-22.5,8.5-6.9,17.2-14.7,24.8-23.2,20.2-22.9,32.2-50.7,10.8-77.6-27.2-27.5-74.8-16.8-107-6.5-32.8,11.3-83.6,29.1-79.1,72.5,3.9,24.9,22.8,38.3,45.6,45.4,15.4,4.9,32.6,6.9,48.2,7.7,8.1.5,15.3,5.4,18.6,12.8,1.5,3.2,3,7.2,4.6,12.2,9.3,28.8-24.8,65.6-76.2,99.8-44.4,29.5-90.1,53.9-90.6,54.1-7.7,4.1-17.4,10.1-11.8,20.3,4.9,8.9,15.1,13.7,39.6,5.1,8.5-3,17.9-.4,23.4,6.7,10.8,14,29.1,40.8,58.8,92,13.1,22.5,27.1,40.8,42,54.8h0c4.3,4.1,8.6,7.8,13,11.1,22.6,17.2,47,25.4,72.8,24.9,11.1-.2,46.2-2.1,76.8-26.8,16-12.9,30.8-32.1,40.3-60.6,1.6-4.8,3.1-9.8,4.4-15,10-41.3,3.3-119.4-8.8-175.8-1.4-6.5,2.8-13,9.4-14.3ZM406.3,688.8c-9.6,10.6-21.2,17.4-33.2,22.4-13.1,5.4-27.3,8.3-41.6,7.9h-.3c-1.8,0-3.6-.1-5.5-.3h-.2c-.1,0-.2,0-.3,0h0c0,0-.1,0-.2,0-2.9-.3-5.8-.6-8.7-1.2h0c-30.7-5.7-60.2-27.1-79-70.2-23.8-54.8-41.1-94.6-51.1-117.4,7.2-4.5,15-9.5,23.3-15,11-7.3,20.6-14.1,29.1-20.5,11.8-9,39.1-19.8,46.1-6.2,18.1,35.1,38.6,96.1,48.5,132.4,2.4,8.9,25.9,21.1,10.7-49.7-6.7-31.3-17.1-64.3-30.5-93.3-2.2-4.8,0-9.8,3.7-13.5,10.2-10.2,34.2-6.4,38.6-5.8,13.8,1.9,30.4,3,49.3,3.2,39.2,137.2,28.1,197.5,1.3,227.3h0ZM179.5,293.7c8.8-17.2,39.2-26.4,57.5-32.7,15.5-5.2,32.2-9.5,48.4-9.6,19.9-.3,36.7,6.2,27,28.3-1.7,3.3-3.7,6.5-5.9,9.6-6.3,9-14.4,17.2-22.9,24.7-3.8,3.3-7.7,6.6-11.5,9.6-5,4-11.4,6-17.8,5.6-3.3-.2-7-.5-10.9-.8-10.2-1-21.7-2.6-32.1-5.3-19.8-5.1-35.8-14.1-31.7-29.4Z"/>
  <path d="M-313.7,769c-146.2-132.9-190.8-376.4-157.6-564.8,0,0,1.4,12,1.4,12-30.7-69.8-56.8-140.6-76.9-214.2-18.6-72.8-51.1-207.3,16.7-262.2,84.5-58.4,228.5-21.9,318,8.7,36.3,12.6,71.5,26.7,106.2,43.4,0,0-17.7,0-17.7,0,29.5-14.3,59.8-26.6,90.7-37.2,85.3-28.5,175.2-43.6,265.2-42.1,8.4.2,16.9.5,25.4,1.3,0,0-17.1,6.7-17.1,6.7,55.6-61.3,115.3-118.8,183.9-165.7,39.1-24.9,84.1-60.3,133.5-57.8,44.1,2.4,76.1,40.9,96.1,75.4,48.1,80.9,64.9,175.8,68.5,268.3,1.2,37.1.6,73.9-3.2,110.9,0,0-4.2-14.8-4.2-14.8,56.5,71.4,97.3,154.6,121.2,242.4,39.5,143.8,20.9,301.6-49.5,432.9-34.9,64.6-85.2,119.2-141.8,164-137,105.4-312.9,165.9-486.2,151.2-7.9-.7-13.8-7.7-13.1-15.6.6-7.4,6.8-13,14.1-13.1,28.8-.7,57.4-2.4,85.7-6.2,28.3-3.6,56.4-8.8,84.2-15.5,149.7-37.7,296.8-115.7,388.8-242.6,40.6-57.2,66.3-124.4,81.2-192.6,30-138.9-.2-286-69.6-408.9-14-24.7-29.3-48.9-46.4-71.1-6.9-8.2-3.4-17.9-3-27.5,7.4-115.2-1.8-240-61.1-341.3-46.5-78.7-82.1-63.6-150.6-19.5-59.5,37.5-112.9,84.5-162.1,134.9-12.2,12.5-24.6,25.6-36.1,38.6-4.5,5-10.8,7.3-17.1,6.7-15.1-1.2-30.3-1.4-45.4-1.1-77.5,1.5-154.9,15.4-228.4,40.1-29.4,10-58.1,21.7-86,35.2-5.7,2.8-12.2,2.6-17.5,0-32.8-15.7-67.3-29.5-101.7-41.5-67.6-22.8-140.5-41.9-211.4-36.2-17.2,1.6-33.9,5-49.1,11-13.5,5-25.4,12.1-32.4,25.6-7,12.5-10.6,28.8-12,45.7-3.5,53.4,8.4,107,22,159.2,14.4,53.2,32.8,105.8,53.3,157.2,6.8,17.1,14,34.4,21.4,50.9,1.7,3.5,2.2,7.3,1.6,10.8-1.1,5.8-1.5,12.4-2.3,18.3-8.8,89-3.4,179.8,17.3,266.9,21.6,93.6,66.6,178.7,121.5,256.9,8.3,11.7-7.2,26.2-18.4,16.4h0Z"/>
</svg>