<svg width="2210" height="1624" viewBox="0 0 2210 1624" fill="none"
    xmlns="http://www.w3.org/2000/svg">
    <g style="mix-blend-mode:hard-light" filter="url(#filter0_fn_2411_2128)">
        <rect width="239" height="924" rx="119.5" transform="matrix(-1 0 0 1 1216.98 528.602)"
            fill="#FF6F37" />
        <rect x="771.447" y="545.896" width="238.414" height="848.483" rx="113"
            transform="rotate(-1.65 771.447 545.896)" fill="#FF6F37" />
        <rect width="238.414" height="848.481" rx="119.207"
            transform="matrix(-0.999585 -0.0287939 -0.0287939 0.999585 1429.68 545.896)"
            fill="#FF6F37" />
        <rect width="238.414" height="778.539" rx="119.207"
            transform="matrix(-0.990268 -0.139173 -0.139173 0.990268 919.568 554.279)"
            fill="#FF6F37" />
        <rect width="238.414" height="778.539" rx="119.207"
            transform="matrix(-0.990268 0.139173 0.139173 0.990268 1525.12 521.098)" fill="#FF6F37" />
        <rect x="1410.99" y="458.06" width="238.414" height="778.539" rx="119.207"
            transform="rotate(-10 1410.99 458.06)" fill="#FF6F37" />
        <rect width="238.414" height="778.539" rx="119.207"
            transform="matrix(-0.984808 -0.173648 -0.173648 0.984808 771.713 458.06)" fill="#FF6F37" />
        <path
            d="M459.29 352.652C475.941 288.957 541.076 250.82 604.771 267.472C668.467 284.124 706.604 349.258 689.952 412.954L553.34 935.516C536.688 999.212 471.554 1037.35 407.858 1020.7C344.163 1004.05 306.026 938.911 322.678 875.215L459.29 352.652Z"
            fill="#FF6F37" />
        <path
            d="M448.032 152.35C468.406 89.7456 535.673 55.5103 598.277 75.8835C660.882 96.2568 695.117 163.524 674.744 226.128L507.601 739.741C487.228 802.346 419.961 836.581 357.356 816.208C294.751 795.834 260.516 728.568 280.889 665.963L448.032 152.35Z"
            fill="#FF6F37" />
        <path
            d="M1730.4 335.16C1713.75 271.464 1648.61 233.326 1584.92 249.977C1521.22 266.628 1483.08 331.762 1499.73 395.458L1636.34 918.022C1652.99 981.718 1718.12 1019.86 1781.82 1003.2C1845.52 986.554 1883.65 921.42 1867 857.724L1730.4 335.16Z"
            fill="#FF6F37" />
        <path
            d="M1762.95 152.35C1742.57 89.7456 1675.31 55.5103 1612.7 75.8835C1550.1 96.2568 1515.86 163.524 1536.24 226.128L1703.38 739.741C1723.75 802.346 1791.02 836.581 1853.62 816.208C1916.23 795.834 1950.46 728.568 1930.09 665.963L1762.95 152.35Z"
            fill="#FF6F37" />
    </g>
    <g filter="url(#filter1_dfn_2411_2128)">
        <rect width="226" height="876" rx="113" transform="matrix(-1 0 0 1 1210 539.995)"
            fill="url(#paint0_linear_2411_2128)" />
        <rect x="787.982" y="556.502" width="226" height="804.302" rx="113"
            transform="rotate(-1.65 787.982 556.502)" fill="url(#paint1_linear_2411_2128)" />
        <rect width="226" height="804.3" rx="113"
            transform="matrix(-0.999585 -0.0287939 -0.0287939 0.999585 1411.96 556.502)"
            fill="url(#paint2_linear_2411_2128)" />
        <rect width="226" height="738" rx="113"
            transform="matrix(-0.990268 -0.139173 -0.139173 0.990268 928.409 564.448)"
            fill="url(#paint3_linear_2411_2128)" />
        <rect width="226" height="738" rx="113"
            transform="matrix(-0.990268 0.139173 0.139173 0.990268 1502.43 532.995)"
            fill="url(#paint4_linear_2411_2128)" />
        <rect x="1394.24" y="473.239" width="226" height="738" rx="113"
            transform="rotate(-10 1394.24 473.239)" fill="url(#paint5_linear_2411_2128)" />
        <rect width="226" height="738" rx="113"
            transform="matrix(-0.984808 -0.173648 -0.173648 0.984808 788.235 473.239)"
            fill="url(#paint6_linear_2411_2128)" />
        <path
            d="M492.079 373.32C507.864 312.941 569.607 276.791 629.986 292.575C690.365 308.36 726.515 370.103 710.731 430.482L581.232 925.834C565.448 986.213 503.705 1022.36 443.326 1006.58C382.947 990.795 346.796 929.052 362.581 868.673L492.079 373.32Z"
            fill="url(#paint7_linear_2411_2128)" />
        <path
            d="M481.408 183.448C500.721 124.103 564.485 91.6503 623.83 110.963C683.175 130.275 715.627 194.039 696.315 253.384L537.875 740.253C518.563 799.597 454.798 832.05 395.453 812.738C336.109 793.425 303.656 729.661 322.968 670.316L481.408 183.448Z"
            fill="url(#paint8_linear_2411_2128)" />
        <path
            d="M1697.02 356.738C1681.24 296.359 1619.49 260.207 1559.11 275.991C1498.73 291.775 1462.58 353.518 1478.37 413.897L1607.86 909.251C1623.64 969.63 1685.39 1005.78 1745.76 989.998C1806.14 974.214 1842.3 912.472 1826.51 852.092L1697.02 356.738Z"
            fill="url(#paint9_linear_2411_2128)" />
        <path
            d="M1727.87 183.448C1708.56 124.103 1644.8 91.6503 1585.45 110.963C1526.11 130.275 1493.66 194.039 1512.97 253.384L1671.41 740.253C1690.72 799.597 1754.48 832.05 1813.83 812.738C1873.17 793.425 1905.63 729.661 1886.31 670.316L1727.87 183.448Z"
            fill="url(#paint10_linear_2411_2128)" />
    </g>
    <defs>
        <filter id="filter0_fn_2411_2128" x="-70" y="-31.0055" width="2350" height="1688"
            filterUnits="userSpaceOnUse" color-interpolation-filters="sRGB">
            <feFlood flood-opacity="0" result="BackgroundImageFix" />
            <feBlend mode="normal" in="SourceGraphic" in2="BackgroundImageFix" result="shape" />
            <feGaussianBlur stdDeviation="35" result="effect1_foregroundBlur_2411_2128" />
            <feTurbulence type="fractalNoise" baseFrequency="1" stitchTiles="stitch"
                numOctaves="3" result="noise" seed="4944" />
            <feColorMatrix in="noise" type="luminanceToAlpha" result="alphaNoise" />
            <feComponentTransfer in="alphaNoise" result="coloredNoise1">
                <feFuncA type="discrete"
                    tableValues="1 1 1 1 1 1 1 1 1 1 1 1 1 1 1 1 1 1 1 1 1 1 1 1 1 1 1 1 1 1 1 1 1 1 1 1 1 1 1 1 1 1 1 1 1 1 1 1 1 1 1 0 0 0 0 0 0 0 0 0 0 0 0 0 0 0 0 0 0 0 0 0 0 0 0 0 0 0 0 0 0 0 0 0 0 0 0 0 0 0 0 0 0 0 0 0 0 0 0 0 " />
            </feComponentTransfer>
            <feComposite operator="in" in2="effect1_foregroundBlur_2411_2128" in="coloredNoise1"
                result="noise1Clipped" />
            <feFlood flood-color="rgba(0, 0, 0, 0.1)" result="color1Flood" />
            <feComposite operator="in" in2="noise1Clipped" in="color1Flood" result="color1" />
            <feMerge result="effect2_noise_2411_2128">
                <feMergeNode in="effect1_foregroundBlur_2411_2128" />
                <feMergeNode in="color1" />
            </feMerge>
        </filter>
        <filter id="filter1_dfn_2411_2128" x="-10" y="65.9945" width="2230" height="1568"
            filterUnits="userSpaceOnUse" color-interpolation-filters="sRGB">
            <feFlood flood-opacity="0" result="BackgroundImageFix" />
            <feColorMatrix in="SourceAlpha" type="matrix"
                values="0 0 0 0 0 0 0 0 0 0 0 0 0 0 0 0 0 0 127 0" result="hardAlpha" />
            <feOffset dy="4" />
            <feGaussianBlur stdDeviation="2" />
            <feComposite in2="hardAlpha" operator="out" />
            <feColorMatrix type="matrix" values="0 0 0 0 0 0 0 0 0 0 0 0 0 0 0 0 0 0 0.25 0" />
            <feBlend mode="normal" in2="BackgroundImageFix" result="effect1_dropShadow_2411_2128" />
            <feBlend mode="normal" in="SourceGraphic" in2="effect1_dropShadow_2411_2128"
                result="shape" />
            <feGaussianBlur stdDeviation="5" result="effect2_foregroundBlur_2411_2128" />
            <feTurbulence type="fractalNoise" baseFrequency="1" stitchTiles="stitch"
                numOctaves="3" result="noise" seed="4404" />
            <feColorMatrix in="noise" type="luminanceToAlpha" result="alphaNoise" />
            <feComponentTransfer in="alphaNoise" result="coloredNoise1">
                <feFuncA type="discrete"
                    tableValues="1 1 1 1 1 1 1 1 1 1 1 1 1 1 1 1 1 1 1 1 1 1 1 1 1 1 1 1 1 1 1 1 1 1 1 1 1 1 1 1 1 1 1 1 1 1 1 1 1 1 1 0 0 0 0 0 0 0 0 0 0 0 0 0 0 0 0 0 0 0 0 0 0 0 0 0 0 0 0 0 0 0 0 0 0 0 0 0 0 0 0 0 0 0 0 0 0 0 0 0 " />
            </feComponentTransfer>
            <feComposite operator="in" in2="effect2_foregroundBlur_2411_2128" in="coloredNoise1"
                result="noise1Clipped" />
            <feFlood flood-color="rgba(0, 0, 0, 0.1)" result="color1Flood" />
            <feComposite operator="in" in2="noise1Clipped" in="color1Flood" result="color1" />
            <feMerge result="effect3_noise_2411_2128">
                <feMergeNode in="effect2_foregroundBlur_2411_2128" />
                <feMergeNode in="color1" />
            </feMerge>
        </filter>
        <linearGradient id="paint0_linear_2411_2128" x1="114.116" y1="231.958" x2="113.57"
            y2="770.395" gradientUnits="userSpaceOnUse">
            <stop stop-color="#141517" />
            <stop offset="0.195746" />
            <stop offset="1" stop-color="#FF4F18" />
        </linearGradient>
        <linearGradient id="paint1_linear_2411_2128" x1="902.098" y1="769.475" x2="901.638"
            y2="1263.84" gradientUnits="userSpaceOnUse">
            <stop stop-color="#141517" />
            <stop offset="0.195746" />
            <stop offset="1" stop-color="#FF4F18" />
        </linearGradient>
        <linearGradient id="paint2_linear_2411_2128" x1="114.116" y1="212.972" x2="113.656"
            y2="707.338" gradientUnits="userSpaceOnUse">
            <stop stop-color="#141517" />
            <stop offset="0.195746" />
            <stop offset="1" stop-color="#FF4F18" />
        </linearGradient>
        <linearGradient id="paint3_linear_2411_2128" x1="114.116" y1="195.416" x2="113.729"
            y2="649.031" gradientUnits="userSpaceOnUse">
            <stop stop-color="#141517" />
            <stop offset="0.195746" />
            <stop offset="1" stop-color="#FF4F18" />
        </linearGradient>
        <linearGradient id="paint4_linear_2411_2128" x1="114.116" y1="195.416" x2="113.729"
            y2="649.031" gradientUnits="userSpaceOnUse">
            <stop stop-color="#141517" />
            <stop offset="0.195746" />
            <stop offset="1" stop-color="#FF4F18" />
        </linearGradient>
        <linearGradient id="paint5_linear_2411_2128" x1="1508.36" y1="668.655" x2="1507.97"
            y2="1122.27" gradientUnits="userSpaceOnUse">
            <stop stop-color="#141517" />
            <stop offset="0.477313" />
            <stop offset="1" stop-color="#FF4F18" />
        </linearGradient>
        <linearGradient id="paint6_linear_2411_2128" x1="114.116" y1="195.416" x2="113.729"
            y2="649.031" gradientUnits="userSpaceOnUse">
            <stop stop-color="#141517" />
            <stop offset="0.195746" />
            <stop offset="1" stop-color="#FF4F18" />
        </linearGradient>
        <linearGradient id="paint7_linear_2411_2128" x1="581.639" y1="481.92" x2="466.533"
            y2="920.688" gradientUnits="userSpaceOnUse">
            <stop stop-color="#141517" />
            <stop offset="0.477313" />
            <stop offset="1" stop-color="#FF4F18" />
        </linearGradient>
        <linearGradient id="paint8_linear_2411_2128" x1="564.419" y1="297.132" x2="423.678"
            y2="728.361" gradientUnits="userSpaceOnUse">
            <stop stop-color="#141517" />
            <stop offset="0.477313" />
            <stop offset="1" stop-color="#FF4F18" />
        </linearGradient>
        <linearGradient id="paint9_linear_2411_2128" x1="1607.46" y1="465.337" x2="1722.56"
            y2="904.106" gradientUnits="userSpaceOnUse">
            <stop stop-color="#141517" />
            <stop offset="0.477313" />
            <stop offset="1" stop-color="#FF4F18" />
        </linearGradient>
        <linearGradient id="paint10_linear_2411_2128" x1="1644.86" y1="297.132" x2="1785.61"
            y2="728.361" gradientUnits="userSpaceOnUse">
            <stop stop-color="#141517" />
            <stop offset="0.477313" />
            <stop offset="1" stop-color="#FF4F18" />
        </linearGradient>
    </defs>
</svg>