<svg width="105" height="118" viewBox="0 0 105 118" fill="none" xmlns="http://www.w3.org/2000/svg">
<g clip-path="url(#clip0_2167_18693)">
<path d="M23.4772 42.2395C25.6561 43.5741 23.8413 46.6939 21.2636 46.0757C21.489 47.8494 21.4716 49.6404 20.4891 51.1946C20.3041 52.015 19.5701 52.2981 18.2754 52.0439C18.4951 53.9447 18.5009 55.8917 17.501 57.5903C16.7265 58.5263 15.8422 58.8325 15.0735 57.9312C15.4838 65.7366 15.9 73.7558 14.5129 81.4803H0V78.4934H2.56619V75.9339H5.5543V69.5382L8.54819 69.2956V66.5512H5.54852V63.5585H2.56041V60.5657H5.5543C5.50806 58.584 5.60632 56.5735 5.5543 54.5918C4.56019 54.5918 3.5603 54.5918 2.56619 54.5918V51.599H5.56008C5.5832 52.5928 5.53118 53.598 5.56008 54.586C6.55419 54.586 7.55408 54.586 8.54819 54.586L9.01057 48.6467L14.5244 48.1845V45.1975H5.56008V42.2106C11.5247 42.199 17.5183 42.2337 23.4887 42.2106L23.4772 42.2395Z" fill="#FF4F18"/>
<path d="M66.1545 2.98698C66.9117 3.56473 67.2122 4.41981 67.0504 5.54642C69.1773 5.13044 69.8766 6.40727 69.1426 9.38269C70.2754 9.80445 70.2754 10.6826 69.1426 11.0871C69.605 12.0923 70.8476 12.5026 72.8763 12.3234L73.0266 14.5131C74.3501 14.4322 75.3789 14.4958 75.928 15.7611L75.9627 20.4582C77.1475 20.2329 78.0029 20.5217 78.5289 21.3248C79.8351 23.9883 79.7657 27.5761 78.5289 30.2857C78.5289 30.4302 78.5289 30.5688 78.5289 30.7133C78.4075 31.083 78.263 31.083 78.1012 30.7133C77.2689 30.4649 75.928 30.1644 75.3963 30.8519L75.1131 30.2857L74.2577 29.7138C75.1362 27.8707 69.1022 27.5761 69.9922 29.5116C71.7724 29.2862 73.5583 29.3036 75.1188 30.2857C75.4598 31.4875 75.4598 32.7701 75.1188 34.1278C76.2979 34.5033 76.373 36.3521 75.1188 36.6872C74.7894 37.4556 73.9398 37.6521 72.5584 37.2823C72.8243 39.3391 71.31 39.8764 69.5472 40.1364L69.3969 41.3728C70.5876 41.1648 71.5007 41.4479 72.1365 42.2337C72.5758 41.5635 73.2867 41.2341 74.275 41.2457C74.1479 40.3733 74.3097 39.7204 75.1246 39.2467C75.6101 38.1547 75.9222 38.1547 76.4077 39.2467C77.3614 38.8769 78.4364 38.9 79.3958 39.2467C79.6444 38.5996 80.0258 38.3107 80.6789 38.3512C79.9449 35.1793 83.3492 34.3589 84.9444 36.2597C85.1466 36.1095 85.1466 35.9708 84.9444 35.8322C83.7248 35.8033 83.7768 34.8384 84.9444 34.5496L85.3721 33.6945L85.7708 32.8105L90.0247 32.487C89.99 31.707 90.1056 31.0715 90.9206 30.7133C91.013 30.384 91.146 29.9044 91.4176 29.8582C92.6198 29.6676 99.3878 29.656 100.544 29.8582L101.168 30.7133C101.677 30.332 101.966 30.332 102.023 30.7133C103.289 32.4003 103.301 34.5784 102.023 36.2597C101.896 37.0743 101.555 37.0281 101.168 36.2597C99.9196 36.6468 98.5787 36.6063 97.3245 36.2597C97.1742 37.3979 96.6309 36.8779 96.9199 36.7392C97.7811 36.3233 97.5326 39.4604 96.0414 39.2467C95.5964 40.0555 94.8855 39.8591 94.3364 39.2467C93.4636 39.8302 92.6256 40.356 91.7586 39.784C92.6256 40.4368 92.3077 41.6501 91.3483 42.2337C90.071 43.1234 88.3948 43.4065 86.3315 43.0945C85.9963 45.5384 85.3605 46.3357 82.8059 46.1161C83.1815 49.0222 81.858 49.2013 79.3843 49.4613C79.7195 51.5297 79.4363 53.2398 78.5404 54.6033C79.7773 57.3939 79.812 60.7853 78.5404 63.5642C78.1301 64.766 76.3904 64.7197 75.98 63.5642C75.4252 64.2575 75.142 65.1126 75.1246 66.1237C76.3326 67.6316 76.4366 71.075 75.1246 72.5252C75.1246 73.2936 74.5987 73.5767 73.5352 73.3745C73.5757 74.8477 73.1133 75.7028 72.1365 75.9339C72.4255 76.7774 72.5527 78.06 72.1365 78.9209C71.8822 79.6951 71.1886 79.88 70.0558 79.4871C70.1772 82.1043 69.8073 83.0172 67.0157 82.8034C67.2989 85.357 66.4897 85.9464 64.0276 85.7904C64.3801 88.7022 63.1548 88.8813 60.6118 88.7773C60.843 89.9271 60.5598 90.6261 59.7622 90.8688L59.3691 91.7239H36.7994L36.285 90.8688C35.5741 90.6839 35.2331 89.9733 35.2562 88.7311L30.1007 88.6964C28.361 88.7196 27.9737 85.4033 29.4591 84.8948C29.1239 86.3046 24.0724 86.1948 23.4829 84.8948C22.6622 84.6464 22.3674 83.7913 22.5871 82.3354C20.4023 82.5434 19.4313 82.1447 19.5989 79.776C18.4488 80.0071 17.7494 79.724 17.5067 78.9267C16.6686 76.8063 16.6629 74.6455 17.5067 72.5252L17.8477 71.6585C23.7603 71.9532 24.9163 69.9426 18.1078 70.3933L17.5125 69.5382C16.6744 68.5618 16.6744 67.5276 17.5125 66.5512L17.9691 65.6961C19.6336 66.2161 20.437 65.3726 20.385 63.1598C24.084 62.4145 23.2864 61.8599 17.998 61.4901L17.5182 60.5773C16.6802 59.6009 16.6744 58.5667 17.5182 57.5903C18.2465 56.689 19.177 56.3481 19.9688 57.1801C19.3678 55.3197 19.4833 53.3207 20.5064 51.6163C21.1941 51.3101 22.0438 51.1715 23.0668 51.1888C21.7663 51.4719 22.483 45.8966 22.6853 45.6713C23.0957 45.2149 24.5579 44.5447 24.3499 45.6424C25.0492 45.3246 25.6214 45.3246 26.0549 45.6424C26.1763 45.2726 26.3207 45.2726 26.4826 45.6424C27.2802 45.781 27.5692 46.4339 27.3322 47.6067C28.2916 47.6356 28.858 47.9765 29.043 48.6294L29.4707 46.4975C28.6558 46.2548 28.6558 45.885 29.4707 45.6424C30.2914 45.3015 31.2913 45.3015 32.4588 45.6424C32.846 44.4464 34.0829 44.5389 34.5915 45.6424C34.7476 45.394 35.0308 45.394 35.4469 45.6424C35.5914 44.5562 35.996 45.1224 35.7879 45.1917C35.3255 45.3535 35.1001 42.4879 36.3023 42.2279C40.9492 40.8933 46.6249 40.7719 51.2429 42.2279C51.474 43.2043 51.474 44.2038 51.2429 45.2149C51.3874 45.9948 50.8325 46.4166 49.5956 46.4801C49.3933 47.5259 48.9483 48.0978 48.2547 48.2018L47.3416 48.0747C47.2086 45.2495 43.683 47.7858 42.5964 49.08L39.2904 49.0916C39.354 50.1546 39.3482 51.0906 38.5448 51.9283L33.187 52.7025C33.4818 55.5855 31.2913 57.7925 29.0488 55.8744C28.2281 55.7473 28.2801 55.4122 29.0488 55.0193V54.5918C29.0488 55.3602 28.5228 55.6433 27.4593 55.4411C27.4882 56.4175 27.1646 56.9894 26.4884 57.1512V57.5787C27.4651 55.6317 30.1122 56.7872 29.0488 59.2831C30.17 59.4449 30.1065 59.7626 29.0488 60.1382C32.1872 60.0977 35.3198 60.2422 38.4408 60.5657C38.5622 60.1959 38.7067 60.1959 38.8685 60.5657C39.0245 59.5489 39.169 58.5494 39.2962 57.5787C40.0013 56.637 41.4231 56.3481 43.5616 56.7063C43.9662 55.0193 44.6135 52.5696 45.7001 51.6048C47.6768 51.5123 49.376 51.3275 50.7978 51.0444L51.2486 49.9004C50.0985 49.5075 50.0927 49.0165 51.2486 48.6178L54.2367 48.1903C53.3756 48.0921 53.4102 47.6645 54.2367 47.3352C54.1269 45.6135 53.9824 43.9091 53.809 42.2163C53.5663 43.0367 53.1964 43.0425 52.9537 42.2163C51.8671 42.6323 51.3007 42.6323 51.2486 42.2163C50.4279 42.0314 50.1447 41.2919 50.399 40.0035C48.2143 40.2635 46.0527 40.0671 43.9951 39.2293C43.2611 38.8942 43.3189 38.1489 44.1801 36.9934C41.5156 37.2419 40.3076 37.1437 39.0477 34.5727C37.4871 34.278 36.574 33.7003 36.3139 32.8279C35.2273 32.3425 35.2273 32.0363 36.3139 31.5452V31.1177C35.0481 24.0287 34.9383 16.4313 36.3139 9.35958C36.6491 9.07649 37.0768 8.93205 37.597 8.93205C38.1287 7.64944 40.0244 7.69566 40.5851 8.93205C42.8218 8.91471 43.6657 10.8097 41.8682 11.919C42.0936 12.7568 41.5445 13.2132 40.2209 13.2941C40.0996 13.479 40.3828 17.4712 40.5099 17.6445C40.6602 17.841 45.3071 17.945 44.0067 16.0384L44.8505 14.9002C45.0528 13.5772 48.3761 13.6407 48.694 14.9002L49.5205 15.6629C49.6708 19.9844 51.7399 15.2238 49.2431 14.6113L49.1159 13.6234C47.9715 13.3634 48.0756 12.8723 49.1159 12.3408C49.6072 11.3182 52.9421 10.6653 53.3814 11.9132L54.2367 12.3697C53.7281 15.4375 56.2076 15.1891 55.1153 12.4563C56.5371 12.231 56.8434 12.0346 56.7972 11.9132C54.6009 11.3355 56.8318 7.41256 57.6526 9.35381L60.213 8.92627C59.0224 8.37741 58.9992 7.3259 60.213 6.79437V6.36683C59.398 6.12417 59.4038 5.75441 60.213 5.51176L59.7853 5.08422C58.4675 4.84157 58.6351 3.51851 59.7853 2.95232C59.9298 2.95232 60.0685 2.95232 60.213 2.95232C62.0451 1.68126 64.357 1.66971 66.1892 2.95232L66.1545 2.98698Z" fill="#FFA170"/>
<path d="M72.1309 78.9324V79.36C73.3388 80.7928 73.3851 83.0634 72.1309 84.4789C71.4315 85.3628 70.4663 85.7152 69.6514 84.9353C70.212 86.8245 70.4258 89.3146 69.1427 90.8803C67.4262 91.4523 66.7153 92.163 67.0216 93.0122L66.1546 93.8673C64.4381 94.4393 63.7272 95.1499 64.0335 95.9992L63.1665 96.8543C62.0684 98.0098 60.8431 98.0271 59.7507 96.8543C59.7796 97.9347 59.6351 98.9342 59.323 99.8413C58.5543 100.922 57.959 100.916 57.1903 99.8413L56.7626 100.696C57.9186 101.107 57.9648 102.412 56.7626 102.828C55.5258 103.753 53.9537 104.018 52.0522 103.626C52.1446 104.573 52.2082 105.353 51.2141 105.809C51.0176 106.561 50.3067 106.849 49.0814 106.682C49.2894 107.901 49.0062 108.744 48.226 109.224C47.2781 110.397 46.1915 110.385 45.2379 109.224L44.8102 110.079C46.0355 110.426 45.8621 110.732 44.8102 111.362C44.9836 111.645 45.0356 111.922 44.8102 112.217C44.238 113.996 39.8396 113.996 39.2617 112.217C37.7127 108.554 37.8919 105.526 41.3944 105.093V100.436C41.6487 98.5702 44.2033 98.472 45.2321 99.8471L46.284 98.9804L54.4045 99.0729L55.4737 99.8471C55.9592 99.6968 56.1673 99.4715 56.3291 98.992C55.4506 98.784 55.4275 98.3333 55.4737 97.588C52.0348 97.9116 48.5843 97.7383 45.2321 96.8601C42.9664 97.692 40.6661 97.692 38.4005 96.8601C36.5221 97.9231 34.7361 97.9116 32.852 96.8601L32.2855 96.6925C32.3665 94.6473 30.5112 93.5264 30.2973 95.8606L29.4361 96.8601C28.8871 97.8018 27.6213 98.1427 26.9913 97.2529C27.5809 99.1191 27.471 101.124 26.448 102.834C26.2573 103.585 25.5464 103.88 24.3153 103.706C24.5234 104.925 24.2402 105.775 23.4599 106.249C23.3328 108.19 17.8594 106.722 17.4837 105.393C16.2989 102.724 16.3162 99.9626 17.4837 97.2876C17.4837 97.1432 17.4837 97.0045 17.4837 96.8601C17.6513 96.161 18.3622 95.7335 19.6222 95.5832V88.7715C18.7379 88.8467 18.0328 88.656 17.4837 87.8991C16.6399 84.9237 16.6399 81.9136 17.4837 78.9382H20.4718V81.4977H23.4657V84.9064H29.4419L29.4882 87.8471L36.2678 87.8934V90.8803H59.7449V87.8934H63.1608V84.9006H66.1489V81.9079H69.137V78.4933L72.1251 78.9209L72.1309 78.9324Z" fill="#FF6F37"/>
<path d="M17.5009 57.5961C17.4893 58.5898 17.5009 59.5893 17.5009 60.583C18.5585 62.6052 18.5643 64.5406 17.5009 66.557C17.5009 67.5507 17.5009 68.5502 17.5009 69.544C18.3331 70.5204 18.3389 71.5545 17.5009 72.5309C17.5009 74.6571 17.5009 76.8005 17.5009 78.9324C17.5009 81.9136 17.5009 84.9122 17.5009 87.8934C18.495 87.9107 19.5006 87.876 20.489 87.8934V96.6116L17.5009 96.8543C17.4893 93.8731 17.5009 90.8746 17.5009 87.8934C16.5067 87.876 15.5011 87.9107 14.5127 87.8934C14.5012 85.7672 14.5359 83.618 14.5127 81.4919C14.4434 73.5362 14.5648 65.5575 14.5127 57.5961C15.5069 57.5845 16.5067 57.6192 17.5009 57.5961Z" fill="black"/>
<path d="M45.2435 96.8485C46.5266 96.9872 46.4861 99.5697 45.2435 99.8355C44.2494 99.8644 43.2437 99.8124 42.2554 99.8355V106.237H39.2672C39.273 108.224 39.2672 110.223 39.2672 112.211C40.4636 113.031 40.4405 114.366 39.2672 115.198C41.1225 114.025 43.3882 114.025 45.2435 115.198C45.2839 115.926 45.44 117.572 44.8447 118L39.458 117.786C39.0996 116.954 39.3135 116.059 39.273 115.198C38.2789 115.169 37.2732 115.221 36.2849 115.198V106.052L39.2788 105.809C39.0996 103.92 39.5216 101.661 39.2788 99.8355C37.857 99.6795 36.7646 97.3454 38.4234 96.8485C40.6948 96.8427 42.9836 96.8427 45.255 96.8485H45.2435Z" fill="black"/>
<path d="M78.107 30.7191H78.5347C78.5694 31.5684 78.5058 32.4292 78.5347 33.2843H84.9386C85.3143 33.3594 85.3028 33.5038 84.9386 33.7061C85.5513 33.9603 85.5513 34.3069 84.9386 34.5611V35.8437C85.1872 35.9708 85.1814 36.1153 84.9386 36.2713C84.2451 36.3926 81.6789 36.1153 81.5228 36.2713V39.264C80.8177 39.2929 80.101 39.2294 79.3901 39.264C78.4307 38.9289 77.3614 38.9 76.402 39.264C75.9743 39.2698 75.5466 39.2525 75.1189 39.264C73.9052 38.6978 73.8705 37.2477 75.1189 36.7046C75.1651 35.8611 75.038 34.9771 75.1189 34.1451L75.3963 31.7417C75.1189 30.4071 76.0205 30.072 78.107 30.7306V30.7191Z" fill="black"/>
<path d="M84.9388 51.6221C84.8925 52.4714 84.9734 53.3323 84.9388 54.1816L84.5111 54.6091C83.6614 54.5975 82.8003 54.6264 81.9506 54.6091C81.8582 57.5845 82.02 60.5946 81.9506 63.57C80.8178 63.5931 79.6677 63.5354 78.5348 63.57C78.5233 67.545 78.5406 71.543 78.5348 75.5179H75.119C74.281 74.5358 74.281 73.5016 75.119 72.531C75.1364 70.4279 74.9861 68.2151 75.119 66.1295C75.1306 65.1126 75.4138 64.2633 75.9744 63.57C76.5639 63.4198 77.7893 63.5931 78.5348 63.57C78.5464 60.5888 78.4886 57.5903 78.5348 54.6091C78.6389 52.9336 81.4305 53.2167 81.9506 54.6091C81.1357 54.482 81.1819 54.1411 81.9506 53.754C82.1529 53.39 82.1529 53.1069 81.9506 52.899C80.8236 52.7372 80.8929 52.4194 81.9506 52.0439L82.3783 51.6163C83.0546 50.4088 84.251 50.4319 84.9388 51.6163V51.6221Z" fill="black"/>
<path d="M90.9091 30.2915C90.9553 29.3036 90.8744 28.2925 90.9091 27.3046H102.012C102.041 28.1539 101.971 29.0147 102.012 29.864C101.919 30.3955 101.688 30.6266 101.157 30.7191H90.9149C90.5334 30.6382 90.5508 30.4938 90.9149 30.2915H90.9091Z" fill="black"/>
<path d="M17.501 97.2761C17.5125 99.9742 17.4836 102.684 17.501 105.382C18.3332 106.064 18.3332 106.826 17.501 107.514C17.6975 107.624 17.6801 107.768 17.501 107.941C18.5876 108.427 18.5876 108.739 17.501 109.224C19.3563 108.051 21.6219 108.051 23.4772 109.224C23.4483 110.218 23.5003 111.223 23.4772 112.211H17.7437C17.2756 112.147 17.5183 109.854 17.501 109.224C16.871 109.207 14.5764 109.438 14.5071 108.981L14.5186 96.8543L17.501 97.2818V97.2761Z" fill="black"/>
<path d="M69.1426 11.0928C70.5528 10.8386 71.5527 11.1217 72.1307 11.9479C73.1248 12.0288 74.1767 11.7341 75.1477 12.1328L75.5465 14.9349H78.5404C78.5519 17.061 78.5173 19.2044 78.5404 21.3306C79.5345 21.371 80.5402 21.3017 81.5285 21.3306V30.0488L78.5404 30.2915C78.4653 27.3161 78.5635 24.3118 78.5404 21.3306C77.4076 21.2844 76.2574 21.3652 75.1246 21.3306L75.0783 15.4086L72.1307 15.3624V12.3696L69.8477 12.3061C69.1541 12.0923 69.2408 11.6417 69.1484 11.087L69.1426 11.0928Z" fill="black"/>
<path d="M75.119 75.9455C75.1017 78.7822 75.1306 81.6421 75.119 84.4789C74.1249 84.4904 73.125 84.4558 72.1309 84.4789C72.1482 82.7803 72.0731 81.0586 72.1309 79.36C72.2812 78.1756 72.4256 77.0374 72.5586 75.9455C72.4025 74.6629 74.8936 74.7264 75.119 75.9455Z" fill="black"/>
<path d="M102.006 30.2915H104.994V35.8379L104.566 36.2655C103.717 36.2886 102.856 36.2308 102.006 36.2655C101.977 37.2592 102.029 38.2645 102.006 39.2524H97.7348V42.2394C96.602 42.2625 95.4518 42.2105 94.319 42.2394C94.3074 43.2331 94.3305 44.2326 94.319 45.2264C93.3249 45.2379 92.325 45.2033 91.3309 45.2264C90.1229 44.2789 90.1403 43.1696 91.3309 42.2394C92.2787 41.0723 93.3653 41.0897 94.319 42.2394C93.4867 41.4074 93.4809 40.5062 94.319 39.68C94.7987 39.5702 95.3709 39.4258 96.024 39.2524C96.3939 38.2067 96.6713 37.5596 96.4517 36.2655C96.7349 36.2481 97.0239 36.2828 97.3071 36.2655C98.5555 36.6063 99.9022 36.6468 101.151 36.2655C101.434 36.2597 101.723 36.277 102.006 36.2655C102.058 34.434 102.041 32.5505 102.006 30.719C101.625 30.6382 101.642 30.4937 102.006 30.2915Z" fill="black"/>
<path d="M72.1307 84.4789C72.1076 86.605 72.1423 88.7542 72.1307 90.8804C71.1366 90.8919 70.1367 90.8573 69.1426 90.8804C69.2062 88.7542 69.0963 86.605 69.1426 84.4789C70.1367 84.4673 71.1366 84.502 72.1307 84.4789Z" fill="black"/>
<path d="M26.4652 102.822C26.4363 104.949 26.4825 107.098 26.4652 109.224C25.4711 109.247 24.4654 109.195 23.4771 109.224C22.2633 108.525 22.2286 106.913 23.4771 106.237C23.5175 105.237 23.2921 104.198 23.662 103.221C24.1244 102.563 25.6965 102.869 26.4652 102.822Z" fill="black"/>
<path d="M48.2317 109.224C48.1623 111.206 48.2837 113.216 48.2317 115.198C47.2376 115.221 46.2319 115.169 45.2436 115.198C44.3824 115.1 44.4229 114.672 45.2436 114.343L44.8159 111.356C44.8506 110.934 44.7928 110.501 44.8159 110.073L45.2436 109.218C46.2377 109.207 47.2376 109.235 48.2317 109.218V109.224Z" fill="black"/>
<path d="M90.909 30.2915C90.9032 30.4359 90.9148 30.5746 90.909 30.719C90.8743 31.5683 90.9379 32.4292 90.909 33.2843L85.3605 33.706C85.2391 34.0758 85.0946 34.0758 84.9328 33.706C84.9328 33.5616 84.927 33.4229 84.9328 33.2785C84.9733 32.2847 84.9039 31.2795 84.9328 30.2915H90.909Z" fill="black"/>
<path d="M66.1547 0C66.1778 0.993733 66.1258 1.99324 66.1547 2.98698C64.178 2.9292 62.1551 2.94653 60.1784 2.98698C60.1033 2.01635 60.2883 0.947513 60.1784 0H66.1547Z" fill="black"/>
<path d="M29.4476 96.8485C29.4765 95.8548 29.4245 94.8495 29.4476 93.8615H32.6207C33.0773 93.9251 32.8577 96.2245 32.8635 96.8485C34.7072 96.8312 36.5682 96.8485 38.412 96.8485C38.0883 98.056 39.1287 98.8417 39.2674 99.8355H32.8635C32.8519 98.8475 32.8808 97.8422 32.8635 96.8485C31.7306 96.86 30.5805 96.8138 29.4476 96.8485C29.3898 98.8302 29.4881 100.841 29.4476 102.822C28.4593 102.863 27.4479 102.765 26.4595 102.822C26.4827 100.835 26.4422 98.836 26.4595 96.8485C27.4536 96.8254 28.4593 96.8832 29.4476 96.8485Z" fill="black"/>
<path d="M56.7684 102.822C56.6932 103.805 56.8262 104.827 56.7684 105.809C54.9304 105.861 53.0578 105.729 51.2198 105.809C51.1736 106.942 51.2545 108.092 51.2198 109.224C50.2257 109.236 49.2258 109.201 48.2317 109.224C48.2664 108.224 48.0526 107.185 48.4167 106.208C48.8733 105.555 50.4569 105.844 51.2198 105.809C51.2603 104.816 51.191 103.81 51.2198 102.822C53.0636 102.788 54.9304 102.88 56.7684 102.822Z" fill="black"/>
<path d="M69.5705 6.40149H72.1366V11.9479C70.9402 11.8497 69.7092 12.4505 69.1485 11.0928C69.0734 10.6537 69.1081 9.86222 69.1485 9.38847C69.1717 8.31962 69.3104 7.32589 69.5762 6.40149H69.5705Z" fill="black"/>
<path d="M91.3367 45.2264C91.3772 46.4339 91.7702 47.4507 91.7644 48.6351C90.6316 48.6524 89.4872 48.6236 88.3486 48.6351C88.3081 49.6288 88.3775 50.6341 88.3486 51.6221C87.2158 51.6452 86.0656 51.5816 84.9328 51.6221C82.4591 49.1204 85.32 46.2086 88.3486 48.6351C86.0541 46.0699 88.3024 42.69 91.3367 45.2206V45.2264Z" fill="black"/>
<path d="M66.1546 93.8615C66.1084 94.9939 66.1893 96.1437 66.1546 97.2761C65.1143 96.9756 64.2589 96.8716 63.1723 96.8485C63.126 97.9809 63.207 99.1306 63.1723 100.257C61.999 100.067 60.9702 99.8817 59.7622 99.8297C59.6004 98.8418 59.6004 97.848 59.7622 96.8427C60.8951 96.8601 62.0394 96.8196 63.1781 96.8427C63.2185 95.849 63.1492 94.8437 63.1781 93.8558C64.1722 93.8442 65.1721 93.8789 66.1662 93.8558L66.1546 93.8615Z" fill="black"/>
<path d="M66.1546 2.98701C67.1487 3.01589 68.1543 2.9639 69.1427 2.98701C68.6861 4.13673 69.5357 5.77755 69.5646 6.40152C69.6339 7.81123 69.2005 8.59697 69.1369 9.38849V6.40152H66.1488C66.1257 5.26912 66.1892 4.1194 66.1488 2.98701H66.1546Z" fill="black"/>
<path d="M75.119 72.5309C75.1074 73.5247 75.119 74.5242 75.119 75.5179C75.119 75.6624 75.119 75.801 75.119 75.9455H72.5586C72.4372 76.3152 72.2927 76.3152 72.1309 75.9455C72.2291 74.9979 72.9227 73.7558 72.5528 72.5309H75.119Z" fill="#FF6F37"/>
<path d="M69.1426 90.8746C69.1137 91.8683 69.1657 92.8736 69.1426 93.8615C68.1485 93.8731 67.1486 93.8384 66.1545 93.8615C66.1949 92.8678 66.1256 91.8625 66.1545 90.8746C67.1486 90.863 68.1485 90.8977 69.1426 90.8746Z" fill="black"/>
<path d="M59.3287 99.8355C59.4097 99.4542 59.5541 99.4657 59.7564 99.8355C59.7564 100.829 59.7564 101.829 59.7564 102.822C58.7623 102.846 57.7567 102.794 56.7683 102.822C56.8203 102.164 56.6354 101.234 56.7683 100.691L57.196 99.8355C57.9069 99.8297 58.6178 99.8471 59.3287 99.8355Z" fill="black"/>
<path d="M102.006 30.2915C102.006 30.4359 102.006 30.5746 102.006 30.719H101.151L102.006 29.864C102.012 30.0084 102.006 30.1471 102.006 30.2915Z" fill="black"/>
<path d="M32.8635 36.2655C33.6496 26.2126 33.1641 16.0673 33.2854 5.9682H42.2556V8.95518C41.8857 9.32494 41.3192 9.32494 40.5505 8.95518C39.5622 8.97251 38.5508 8.89162 37.5624 8.95518C37.048 8.95518 36.6203 9.09961 36.2793 9.38271C36.2215 16.6277 36.3602 23.8958 36.2793 31.1408V31.5684C36.2736 31.9959 36.2909 32.4234 36.2793 32.851C38.6548 35.8495 36.0828 38.6747 32.8635 36.2655Z" fill="black"/>
<path d="M59.7563 2.98695C59.8257 3.6687 59.6581 4.46022 59.7563 5.11886L60.184 5.54639C60.2187 5.82371 60.1609 6.11837 60.184 6.40147V6.829C60.1493 7.53964 60.2071 8.25605 60.184 8.96091L57.6236 9.38844C57.4097 9.47511 56.8491 9.12845 56.7509 9.65999L56.7682 11.9479C55.9128 12.4967 55.0054 12.7741 54.046 12.7741L53.3582 11.9479C51.9421 12.0634 50.5608 12.6181 49.0927 12.3754C48.4917 12.9416 48.272 12.7047 48.665 11.9479V8.96091H56.774V2.98695C57.7623 2.96384 58.768 3.02162 59.7621 2.98695H59.7563Z" fill="black"/>
<path d="M26.4652 42.2394C27.9333 42.459 27.7194 45.654 26.0375 45.2264C25.5405 45.4229 24.9741 45.5673 24.3325 45.654C24.1244 45.7406 23.5638 45.394 23.4598 45.9197L23.0494 51.2004C22.1882 51.3621 21.3328 51.3621 20.489 51.2004C20.5121 49.2129 20.4774 47.2139 20.489 45.2264H23.4829V42.2394C24.477 42.2394 25.4769 42.2394 26.471 42.2394H26.4652Z" fill="black"/>
<path d="M42.2555 8.96095C43.2496 8.99562 44.2553 8.93784 45.2436 8.96095V11.9537H48.6536L49.0813 12.3812C49.0524 12.803 49.1218 13.2421 49.0813 13.6639C50.2084 14.1434 49.7749 14.9696 48.6536 14.9465H44.8101C44.0934 14.5016 43.7871 13.791 43.9027 12.8203C42.8219 12.9994 42.1283 12.7106 41.8278 11.9595L41.8509 9.67736L40.5447 8.97829C41.1111 8.96673 41.6891 8.96095 42.2497 8.97829L42.2555 8.96095Z" fill="black"/>
<path d="M32.8634 36.2654C35.4643 38.7787 32.1987 41.7599 29.4476 39.2524C30.5862 40.2173 30.5746 41.2919 29.4476 42.2394C28.4708 43.0771 27.4363 43.0771 26.4595 42.2394C26.5231 41.2514 26.4132 40.2404 26.4595 39.2524C27.4536 39.2235 28.4593 39.2929 29.4476 39.2524C29.4765 38.2587 29.4245 37.2534 29.4476 36.2654C30.5804 36.2539 31.7306 36.2828 32.8634 36.2654Z" fill="black"/>
<path d="M20.489 51.2004C20.8704 51.2813 20.8531 51.4257 20.489 51.6279C20.4659 53.6154 20.5063 55.6144 20.489 57.6019C19.4949 57.6134 18.495 57.5788 17.5009 57.6019C17.5182 55.4757 17.4893 53.3265 17.5009 51.2004H20.489Z" fill="black"/>
<path d="M36.2792 32.851L39.4176 33.6656L41.1804 36.2655L44.4171 36.0806L45.5094 33.758L48.6594 33.7002V36.693L45.2609 36.7103L43.9605 39.2524C41.5792 40.1191 39.0882 40.4195 36.6202 39.8129C37.5797 40.2404 37.2907 41.7945 36.2792 42.2394C34.0136 43.0714 31.7133 43.0714 29.4476 42.2394C30.2626 42.7132 30.4244 43.366 30.2972 44.2384C31.6381 44.2269 32.3548 44.7006 32.4357 45.6539H29.4476C29.2049 46.925 26.7254 46.8961 26.4595 45.6539H26.0318C25.6619 45.5326 25.6619 45.3882 26.0318 45.2264C26.7832 44.4349 26.3902 43.2505 26.4595 42.2394C27.4536 42.2394 28.4535 42.2394 29.4476 42.2394C29.413 41.2572 29.4187 40.2404 29.4476 39.2524C30.5805 39.2062 31.7306 39.2871 32.8634 39.2524C32.9155 38.2645 32.7825 37.2476 32.8634 36.2655C33.9963 36.2481 35.1464 36.277 36.2792 36.2655C36.3024 35.1331 36.2446 33.9833 36.2792 32.851Z" fill="#FF6F37"/>
<path d="M94.3249 39.2524C94.6948 39.3738 94.6948 39.5182 94.3249 39.68C94.3192 40.535 94.3365 41.3843 94.3249 42.2394C93.3308 42.2625 92.3309 42.2279 91.3368 42.2394C91.3022 43.2216 91.3022 44.2442 91.3368 45.2264C90.3427 45.2437 89.3371 45.2091 88.3487 45.2264C88.3198 46.3588 88.395 47.5085 88.3487 48.6409C87.2159 48.6582 86.0657 48.6294 84.9329 48.6409C84.8925 49.6289 84.9907 50.6399 84.9329 51.6279C84.0833 51.6568 83.2221 51.6105 82.3725 51.6279L81.9448 52.0554C81.9159 52.3327 81.9853 52.6389 81.9448 52.9105C82.1471 53.1243 82.1471 53.4074 81.9448 53.7656C81.9275 54.0487 81.9564 54.3375 81.9448 54.6206C80.7195 54.5975 79.5 54.0891 78.529 54.6206C78.5579 52.6505 78.4596 50.6573 78.5752 48.6929L81.939 48.2191V45.2322H84.9329L85.6323 42.303C87.528 42.1585 89.4411 42.2683 91.3368 42.2452C91.3715 41.2515 91.3137 40.2462 91.3368 39.2582C92.3309 39.2582 93.3308 39.2582 94.3249 39.2582V39.2524Z" fill="#FF6F37"/>
<path d="M29.0257 55.8917L31.9907 55.4468L32.4068 51.8127L38.4119 51.2003V48.2076L42.845 48.2422L43.5154 46.717L47.5786 45.6481L48.2259 48.2133C48.0525 49.5826 44.0587 49.8831 43.5328 48.6409L43.1051 49.0684C43.92 49.1955 43.8738 49.5364 43.1051 49.9235V50.351C44.2379 50.4897 44.1917 50.8768 43.1051 51.2061C42.1861 52.1305 40.8163 52.3905 39.7182 51.7145C40.51 52.5638 40.2326 53.9504 39.2673 54.6148C39.1864 54.9962 39.0419 54.9788 38.8396 54.6148C38.5911 55.4468 38.1461 55.5623 37.3832 55.4757L36.8399 57.6596C35.8342 58.8266 30.2683 59.052 29.4476 57.6018C28.1414 57.44 27.8293 56.5676 29.0199 55.8974L29.0257 55.8917Z" fill="#FF6F37"/>
<path d="M45.6713 51.6221C45.1049 53.598 44.4633 55.4815 44.3709 57.5729L39.2732 57.596C38.9437 56.6716 38.9264 55.5277 39.2732 54.6091L40.0245 53.7655C41.4521 53.9504 42.6254 53.9504 43.5444 53.7598C43.7698 53.2398 44.053 52.5292 44.3998 51.6279C44.7176 51.2812 45.3534 51.2928 45.6829 51.6279L45.6713 51.6221Z" fill="#FF6F37"/>
<path d="M61.4615 25.6002C62.8833 25.5944 62.34 28.4947 61.0396 28.6565C61.1956 29.5693 60.9124 30.1182 60.1784 30.2973C62.0915 30.9155 63.0336 30.6439 64.0219 29.0147C63.9988 28.0729 65.0218 28.2116 65.305 29.0147C65.6171 29.4249 65.6749 33.4518 65.4553 33.4922L61.0396 33.2842C60.4674 33.2958 59.8952 33.2669 59.3288 33.2842L58.9069 35.8495H54.2137C54.1733 35.1446 54.2773 34.4166 54.2137 33.7176V33.29C54.3409 33.0069 54.4796 33.0127 54.6414 33.29C54.89 32.4754 55.2714 32.4754 55.4968 33.29L55.9245 32.8625C56.1673 32.0479 56.5372 32.0479 56.7799 32.8625C56.8724 31.9901 57.3001 32.0248 57.6353 32.8625C57.8492 33.1687 58.2653 32.7585 58.063 32.0074C57.5429 31.4874 57.1152 30.7768 56.7799 29.8755C56.4678 29.396 56.4678 28.6853 56.7799 27.7436C56.8666 27.4201 56.6528 26.8828 56.8031 26.4957C57.3579 26.3628 57.9359 26.513 58.4907 26.4668C58.0226 25.941 58.2595 25.8313 58.9184 26.0392C59.1959 26.0624 59.4964 26.0566 59.7738 26.0392L60.2015 25.6117C60.5541 25.5193 61.1263 25.7041 61.4846 25.6117L61.4615 25.6002Z" fill="black"/>
<path d="M43.9604 39.2524C46.3763 39.264 48.8038 39.2409 51.2197 39.2524V42.2394C46.2549 42.1123 41.2439 42.2567 36.2791 42.2394C36.2329 43.3718 36.3138 44.5215 36.2791 45.6539C35.9959 45.677 35.707 45.6308 35.4237 45.6539C35.0596 45.4459 34.7706 45.4459 34.5684 45.6539C33.8921 45.6597 33.0714 45.7348 32.4356 45.6539C31.7652 45.573 30.5688 44.8104 29.4475 45.2321C29.4244 44.2384 29.4822 43.2331 29.4475 42.2452C31.719 42.2452 34.0077 42.2394 36.2791 42.2452C36.3196 41.2514 36.2502 40.2461 36.2791 39.2582C38.8338 39.2697 41.4057 39.2466 43.9662 39.2582L43.9604 39.2524Z" fill="black"/>
<path d="M53.7802 42.2394C53.9536 43.9323 54.0923 45.6366 54.2079 47.3583C54.1848 47.6414 54.2252 47.9303 54.2079 48.2134L51.2198 48.6409C51.2024 49.0685 51.2429 49.496 51.2198 49.9235L50.8556 51.1426C48.3415 51.5701 45.7579 51.5932 43.1108 51.2061V49.9235C43.1224 49.6404 43.1051 49.3516 43.1108 49.0685L43.5385 48.6409L48.2317 48.2134L48.6305 45.8388L51.2198 45.2264C51.0464 43.1523 51.6128 42.1528 52.9248 42.2394C53.2022 42.2683 53.497 42.2221 53.7802 42.2394Z" fill="black"/>
<path d="M41.8277 11.9479C42.7987 11.8497 43.839 12.0115 44.8158 11.9479C44.8331 12.9416 44.7869 13.9412 44.8158 14.9349C44.8447 16.0673 44.7984 17.217 44.8158 18.3494L39.6776 18.5921L39.2615 12.3697C40.2093 12.7914 41.3364 11.9941 41.8277 11.9479Z" fill="#FF6F37"/>
<path d="M38.8396 54.6091C39.2152 56.3192 39.1979 58.7574 38.8396 60.5831H38.4119C35.2966 60.2595 32.1698 60.1151 29.0198 60.1555C29.0487 59.8782 28.9736 59.5662 29.0198 59.3004C29.0661 58.6765 29.2048 58.1103 29.4475 57.5961L35.9902 57.6134L36.7011 54.6091C37.4062 54.5629 38.1229 54.6438 38.8338 54.6091H38.8396Z" fill="black"/>
<path d="M17.5011 60.583L23.4946 61.2532L23.4773 63.5758H20.9111V66.5627H17.4953C17.5011 64.5753 17.4837 62.5763 17.4953 60.5888L17.5011 60.583Z" fill="#FF6F37"/>
<path d="M49.0812 24.3176C50.4857 24.6411 50.3874 29.6791 49.0812 30.2915C47.8039 30.3377 46.515 30.2568 45.2377 30.2915C45.3128 28.3098 45.1799 26.2992 45.2377 24.3176C46.515 24.3522 47.8097 24.2771 49.0812 24.3176Z" fill="white"/>
<path d="M75.119 36.693C75.0727 37.5423 75.1479 38.4032 75.119 39.2525C74.6277 40.148 73.8763 40.1653 72.9805 40.148C73.2117 41.2977 72.9285 41.9968 72.1309 42.2395C70.8535 42.2799 69.5647 42.2163 68.2874 42.2395L68.8191 39.3622L71.7032 38.8249V36.2655L75.119 36.693Z" fill="#FF6F37"/>
<path d="M67.01 18.7712C68.3451 19.2854 68.3914 24.0345 67.0447 24.4678C66.3107 24.462 64.4091 24.6007 63.5942 24.7451C63.4497 25.1149 63.311 25.1149 63.1665 24.7451V18.7712C64.4323 18.7018 65.7443 18.8752 67.01 18.7712Z" fill="black"/>
<path d="M62.7387 6.40147H65.7268V8.23872C67.1717 8.85114 66.5244 10.5382 66.5128 11.8843L62.7329 12.3696V6.39569L62.7387 6.40147Z" fill="#FF6F37"/>
<path d="M67.01 18.7712C67.5591 18.7307 68.663 18.7538 69.7843 18.7538V24.4216C69.1023 24.4216 67.5475 24.4736 67.0447 24.4678L67.01 18.7712Z" fill="white"/>
<path d="M39.2673 57.5961C39.2442 58.5089 39.354 59.4275 39.2211 60.3346L38.8396 60.583V54.6091C38.9841 54.6033 39.1228 54.6091 39.2673 54.6091C39.2442 55.6028 39.2962 56.6023 39.2673 57.5961Z" fill="black"/>
<path d="M51.2197 49.9177C51.1908 50.4839 51.2486 51.0617 51.2197 51.6279C49.376 51.6799 47.5091 51.5528 45.6712 51.6279C45.2435 51.6452 44.8158 51.599 44.3881 51.6279C44.1453 52.4598 43.8564 53.1705 43.5327 53.7598C43.4807 53.8118 43.7234 54.4993 43.2495 54.6206C42.3767 54.8459 40.3827 54.5802 39.2615 54.6148C39.2904 53.4825 39.2384 52.3327 39.2615 51.2003C40.5388 51.183 41.8277 51.2292 43.105 51.2003C45.4516 51.1541 47.8212 51.2061 50.1736 51.235L51.2139 49.9177H51.2197Z" fill="black"/>
<path d="M17.5009 69.5439H23.4771V72.2883L17.4951 72.5309C17.4951 71.5372 17.4951 70.5377 17.4951 69.5439H17.5009Z" fill="#FF6F37"/>
<path d="M75.1188 30.2915C73.1306 30.2742 71.1308 30.3031 69.1426 30.2915V27.2988L75.0957 27.7494C75.1824 28.5929 75.0899 29.4422 75.1188 30.2915Z" fill="#FF6F37"/>
<path d="M45.2436 30.2915C45.2031 31.3084 44.735 32.175 45.2436 33.2727H39.6951L39.7413 30.7595C41.5735 30.1413 43.371 30.3378 45.2436 30.2858V30.2915Z" fill="#FF6F37"/>
<path d="M63.1664 24.7451C63.3051 24.7162 63.4554 24.7682 63.5941 24.7451L63.7675 26.461L62.3168 27.085L65.7095 28.1885C65.8193 28.4542 65.6979 28.7489 65.7326 29.0147C65.6112 29.3844 65.4667 29.3844 65.3049 29.0147C64.8946 29.0609 64.4148 28.9453 64.0218 29.0147C63.1491 30.771 61.9585 30.8461 60.1783 30.2973L60.1494 27.9689L61.4094 27.7089L61.4556 25.6002C61.5539 25.5713 61.7966 25.0224 63.1606 24.7451H63.1664Z" fill="#FF6F37"/>
<path d="M48.2144 24.3176C49.0004 24.3407 51.555 24.098 51.6475 24.566V30.2973C50.5031 30.3204 49.353 30.2626 48.2144 30.2973V24.3234V24.3176Z" fill="black"/>
<path d="M75.5501 21.7467L71.2673 21.752L71.2705 24.3229L75.5532 24.3177L75.5501 21.7467Z" fill="#FF6F37"/>
<path d="M56.7682 29.864C57.7913 30.0142 57.6641 32.4754 56.7682 32.8509C56.4908 32.8798 56.1961 32.8278 55.9128 32.8509L55.4851 33.2785C55.2424 33.3362 54.9014 33.238 54.6297 33.2785C54.3465 33.1514 54.3523 33.0127 54.6297 32.8509L52.0693 32.4234L52.5028 30.719L53.7686 31.5683L54.4737 30.3435L56.3405 30.2973C56.0284 29.2111 56.5428 28.5525 56.7625 27.7321V29.864H56.7682Z" fill="#FF6F37"/>
<path d="M49.0812 13.6523L51.1445 14.5767L51.2139 18.3494H48.6477C48.7055 17.2228 48.5726 16.0557 48.6477 14.9349C48.6824 14.4322 49.0465 13.9412 49.0754 13.6523H49.0812Z" fill="#FF6F37"/>
<path d="M56.7684 11.9479L56.8724 15.3624H53.3525V11.9479C54.4738 11.8554 55.6413 12.0114 56.7684 11.9479Z" fill="#FF6F37"/>
<path d="M61.4614 12.3697H58.4675V15.3624H61.4614V12.3697Z" fill="#FF6F37"/>
<path d="M75.119 39.2525C75.0843 40.2462 75.1421 41.2515 75.119 42.2394C74.1249 42.2625 73.1192 42.2048 72.1309 42.2394V39.2525C73.1192 39.2293 74.1249 39.2871 75.119 39.2525Z" fill="black"/>
<path d="M29.4476 45.6539C29.4476 45.937 29.4476 46.2201 29.4476 46.509C29.3089 47.2485 29.1644 47.9592 29.0199 48.6409H26.4595V45.6539H29.4476Z" fill="black"/>
<path d="M29.0257 54.6091V55.0366C29.0373 55.3197 29.0084 55.6086 29.0257 55.8917C29.072 56.7006 29.4534 57.5094 29.4534 57.5961C29.465 58.6476 29.1009 58.8614 29.0257 59.3005V57.5903H26.4653V54.6033H29.0257V54.6091Z" fill="black"/>
<path d="M38.412 60.583L29.02 60.1555C32.0428 60.4155 35.528 59.6066 38.412 60.583Z" fill="black"/>
<path d="M65.727 29.0147C65.9062 30.4764 65.5941 32.2097 65.727 33.7118L61.0281 33.2843C62.4441 33.2554 63.8775 33.3074 65.2993 33.2843V29.0147H65.7212H65.727Z" fill="black"/>
<path d="M78.1071 30.7191H75.5467C75.9744 31.9439 75.1999 33.3478 75.1247 34.1336C75.0958 32.8567 75.171 31.5684 75.1247 30.2915C76.0611 30.3031 77.5291 29.9795 78.1129 30.7191H78.1071Z" fill="black"/>
<path d="M54.2078 47.3583C53.2715 46.0584 53.994 43.8571 53.7801 42.2394C54.4563 42.5225 54.2945 46.4224 54.2078 47.3583Z" fill="black"/>
<path d="M52.9247 42.2394L51.7283 42.7305L51.2197 45.2264C51.2197 44.2326 51.2197 43.2331 51.2197 42.2394C51.7804 42.2567 52.3699 42.1816 52.9247 42.2394Z" fill="black"/>
<path d="M101.157 36.2655C100.359 36.9819 98.1106 36.9819 97.313 36.2655C98.5845 36.2019 99.8792 36.3059 101.157 36.2655Z" fill="black"/>
<path d="M72.1307 79.3599C72.1307 79.2155 72.1249 79.0768 72.1307 78.9324C72.1711 77.956 72.0324 76.8987 72.1307 75.9454H72.5584C72.4254 77.0143 72.9861 78.6204 72.1307 79.3599Z" fill="black"/>
<path d="M96.0356 39.2524C95.8853 39.6742 95.6194 40.0555 95.6021 40.5293L94.3306 39.68V39.2524H96.0356Z" fill="black"/>
<path d="M79.3902 39.2525C78.4019 39.2987 77.3962 39.2351 76.4021 39.2525C76.9396 38.5476 78.8527 38.5476 79.3902 39.2525Z" fill="black"/>
<path d="M23.0494 51.2004L20.489 51.6279C20.489 51.4835 20.489 51.3448 20.489 51.2004C21.3444 51.2004 22.194 51.2004 23.0494 51.2004Z" fill="#FF6F37"/>
<path d="M60.1783 8.96092L57.6179 9.38845C58.5542 9.00714 59.086 8.74715 60.1783 8.96092Z" fill="black"/>
<path d="M29.0258 48.6409C29.0489 47.9592 28.76 46.873 29.4535 46.509C29.4593 47.1388 29.5113 47.7685 29.4188 48.3983L29.0316 48.6409H29.0258Z" fill="#FF6F37"/>
<path d="M75.1188 66.1294C75.1766 65.257 74.7952 63.8647 75.9742 63.57L75.1188 66.1294Z" fill="black"/>
<path d="M26.0375 45.2264V45.654H24.3325C24.8816 45.4229 25.2573 44.9895 26.0375 45.2264Z" fill="black"/>
<path d="M85.3606 33.7061L85.7825 33.9256V34.5611H84.9329C84.9329 34.278 84.9329 33.9949 84.9329 33.7061H85.3606Z" fill="#FF6F37"/>
<path d="M58.9011 26.0277C58.8606 26.23 58.6699 26.4379 58.4734 26.4553L57.6238 25.606C58.1844 25.3287 58.8086 26.022 58.9011 26.0277Z" fill="#FF6F37"/>
<path d="M37.5624 8.96093L36.2793 9.38847L36.5278 9.00137C36.8688 8.89738 37.2214 8.98404 37.5566 8.96671L37.5624 8.96093Z" fill="black"/>
<path d="M54.2078 33.2785V33.706C54.202 33.6251 53.7686 33.4171 53.8437 33.1167L54.2078 32.851C54.491 32.9781 54.4853 33.1167 54.2078 33.2785Z" fill="#FF6F37"/>
<path d="M35.4238 45.6539C35.1406 45.6713 34.8516 45.6539 34.5684 45.6539L34.788 45.2322L35.4238 45.6539Z" fill="#FF6F37"/>
<path d="M59.7563 26.0277L60.184 25.6002C60.0569 25.6348 59.8719 26.0219 59.7563 26.0277Z" fill="#FF6F37"/>
<path d="M84.9387 36.2655V35.838L85.3606 36.0459C85.2855 36.3002 85.1237 36.2308 84.9387 36.2655Z" fill="#FF6F37"/>
<path d="M54.6357 32.851H54.208V33.2785H54.6357V32.851Z" fill="black"/>
<path d="M60.1784 5.54643C60.1784 5.51755 59.8027 5.45399 59.7507 5.1189L60.1784 5.54643Z" fill="black"/>
<path d="M45.2437 96.8485C48.9369 96.8601 52.6475 96.8427 56.3407 96.8485C56.2945 97.5476 56.4101 98.2929 56.3407 98.9862C56.2482 99.5235 56.0344 99.743 55.4853 99.8413C52.3065 100.153 48.5323 99.7488 45.2437 99.8413V96.8543V96.8485Z" fill="black"/>
<path d="M23.4772 106.237C23.4367 107.231 23.5061 108.23 23.4772 109.224C21.5063 109.282 19.4718 109.276 17.501 109.224C17.4836 108.796 17.5067 108.369 17.501 107.941C17.6975 107.774 17.6975 107.629 17.501 107.514C17.4894 106.803 17.501 106.093 17.501 105.382C19.5296 105.497 21.697 106.751 23.4772 106.237Z" fill="#FFA170"/>
<path d="M44.8159 112.211C45.0991 112.794 45.2436 113.505 45.2436 114.343C45.2609 114.626 45.2263 114.915 45.2436 115.198C43.2727 115.256 41.2383 115.256 39.2674 115.198C39.2211 114.21 39.2674 113.199 39.2674 112.211C41.2325 112.725 42.8508 112.725 44.8159 112.211Z" fill="#FFA170"/>
<path d="M59.7563 99.8355C59.6176 99.8355 59.4731 99.8355 59.3286 99.8355L59.7563 96.8485C59.7563 97.8422 59.7563 98.8418 59.7563 99.8355Z" fill="#FFA170"/>
<path d="M45.2435 114.343C45.2146 113.961 44.8505 113.239 44.8158 112.211C44.8043 111.934 44.7927 111.633 44.8158 111.356C45.625 111.962 45.1395 113.407 45.2435 114.343Z" fill="black"/>
<path d="M56.3405 98.9804C56.3116 99.2577 56.3752 99.5524 56.3405 99.8355C56.0631 99.8701 55.7683 99.8066 55.4851 99.8355L56.3405 98.9804Z" fill="black"/>
<path d="M56.7683 100.691L57.196 99.8355C57.3521 100.251 56.7914 100.598 56.7683 100.691Z" fill="black"/>
<path d="M17.501 107.941C17.501 107.797 17.501 107.658 17.501 107.514L17.9171 107.728L17.501 107.941Z" fill="#FF6F37"/>
<path d="M81.9505 53.7598C81.9678 53.4825 81.91 53.1705 81.9505 52.9047L82.3724 53.1243L81.9505 53.7598Z" fill="black"/>
<path d="M56.7683 29.864H58.0514C58.0803 30.5688 58.0225 31.2852 58.0514 31.9959C58.4733 32.3021 58.0687 32.8452 57.6237 32.8509C57.3463 32.8509 57.0457 32.822 56.7683 32.8509V29.864Z" fill="#FFA170"/>
<path d="M64.0218 29.0147C63.8658 30.7999 62.3341 30.875 60.8025 30.7364L60.1841 30.2973L62.9352 30.3262L63.2127 29.0724C63.3514 28.8818 63.7848 29.0609 64.0276 29.0204L64.0218 29.0147Z" fill="black"/>
<path d="M57.6179 32.851L58.0456 31.9959C58.0456 32.0364 58.664 31.9439 58.4675 32.6314L57.826 33.2727C57.7509 33.2785 57.6699 32.851 57.6179 32.851Z" fill="black"/>
<path d="M55.4851 33.2785L55.9128 32.851C55.8839 32.851 55.8146 33.1976 55.4851 33.2785Z" fill="black"/>
<path d="M44.3881 51.6221V53.4594C44.2494 53.962 43.5905 53.702 43.5327 53.754V51.6164C43.8159 51.5932 44.1049 51.6395 44.3881 51.6164V51.6221Z" fill="#FFA170"/>
</g>
<defs>
<clipPath id="clip0_2167_18693">
<rect width="105" height="118" fill="white"/>
</clipPath>
</defs>
</svg>
